<svg id="Capa_1" enable-background="new 0 0 510.5 510.5" height="512" viewBox="0 0 510.5 510.5" width="512" xmlns="http://www.w3.org/2000/svg"><g><g><g><g><path d="m210.482 68v270.008h30.016c44.204 0 82.819 23.907 103.638 59.493h152.114c0-66.27-53.722-119.993-119.993-119.993h-30.016v-270.008h-195.009v60.5z" fill="#bc1e4b"/></g><g><path d="m358.131 374.5c-27.33-31.669-58.105-59.493-124.649-59.493v-270.007h-59.25v-37.5h-23v60.5h59.25v270.008h30.016c44.204 0 82.819 23.907 103.638 59.493h152.114c0-7.868-.766-15.555-2.211-23h-135.908z" fill="#99173a"/></g><g><path d="m150.009 7.5h196.232v30h-196.232z" fill="#f8e868"/></g><g><path d="m150.009 7.5h22.518v30h-22.518z" fill="#e8ab4c"/></g><g><path d="m240.499 338.008h-30.016v-270.008h-195.01v390h345.018c0-66.27-53.722-119.992-119.992-119.992z" fill="#bc1e4b"/></g><g><path d="m38.118 435.355v-367.355h-22.645v390h345.018c0-7.743-.742-15.311-2.143-22.645z" fill="#99173a"/></g><g><path d="m344.137 397.5c7.918 13.535 13.265 28.757 15.36 45h136.753v-45z" fill="#92a2b5"/></g><g><path d="m378.75 420c-3.311-10.994-5.65-15.28-8.06-22.5h-26.553c7.918 13.535 13.265 28.757 15.36 45h136.753v-22.5z" fill="#61748b"/></g><g><path d="m14.25 68h196.232v30h-196.232z" fill="#f8e868"/></g><g><path d="m14.25 68h23.868v30h-23.868z" fill="#e8ab4c"/></g><g><path d="m15.473 458h345.018v45h-345.018z" fill="#92a2b5"/></g><g><path d="m37.973 480.5v-22.5h-22.5v45h345.018v-22.5z" fill="#61748b"/></g><g><path d="m38.027 120h15v15h-15z" fill="#fff"/></g><g><path d="m38.027 150h15v15h-15z" fill="#fff"/></g></g></g><g><path d="m292.527 495.5h15v15h-15z"/><path d="m446.754 292.08-8.448 12.395c28.741 19.589 46.674 51.154 48.964 85.526h-138.975c-38.045-64.5-115.534-59.493-130.313-59.493v-270.008h-60.474v-15.5h180.009v225.008h-45.456v15h82.972c17.26 0 33.817 3.804 49.212 11.305l6.57-13.484c-19.567-10.329-44.067-12.821-78.299-12.821v-270.008h-210.007v60.5h-134.536v450h269.554v-15h-119.5v-30h194.964v30h-30.464v15h45.464s.01-60.333 0-60.5h134.536v-60s0-59.5-55.773-97.92zm-109.236-277.08v15h-180.009v-15zm-314.545 450.5h15.054v30h-15.054zm60.055 0v30h-30v-30zm59.999 30h-44.999v-30h44.999zm-120.054-45v-345h134.553v-15h-134.553v-15h180.009v15h-30.456v15h30.456v225.008h-45.456v15c21.017 0 95.664-.512 111.677 3.717 21.241 5.61 40.595 17.563 55.218 33.949 16.576 18.575 26.67 42.477 28.314 67.327h-329.762zm464.554-15.5h-121.619c-1.922-10.503-5.135-20.559-9.468-30h131.087z"/></g></g></svg>