<?xml version="1.0" encoding="iso-8859-1"?>
<!-- Generator: Adobe Illustrator 19.0.0, SVG Export Plug-In . SVG Version: 6.00 Build 0)  -->
<svg version="1.1" id="Layer_1" xmlns="http://www.w3.org/2000/svg" xmlns:xlink="http://www.w3.org/1999/xlink" x="0px" y="0px"
	 viewBox="0 0 512 512" style="enable-background:new 0 0 512 512;" xml:space="preserve">
<path style="fill:#80D0B5;" d="M456.869,26.323c0.335,0.374,0.477,0.812,0.425,1.314c-1.147,10.024-2.293,20.409-3.402,30.884
	c-16.814,158.646-22.548,309.908-14.366,377.307v41.191c0,4.948-4.02,8.968-8.968,8.968H328.695l-15.216-14.688
	c-0.039-0.052-0.077-0.09-0.129-0.129c-0.09-0.077-0.18-0.168-0.271-0.245c-0.039-0.039-0.064-0.052-0.103-0.09
	c-3.041-2.628-7.267-3.814-11.48-2.796c-75.812,18.386-160.939,23.024-239.688,13.078c-3.994-0.503-7.009-4.381-7.022-9.006
	l-0.052-23.849h294.035c7.112,0,12.884-5.772,12.884-12.884c0-7.125-5.772-12.884-12.884-12.884H55.997
	c6.069-32.25,34.414-56.73,68.403-56.73h53.625c1.044,0,2.049-0.142,3.015-0.374c27.07-4.484,48.536-31.696,60.544-76.855
	c11.184-42.093,13.387-96.014,6.21-151.855c-4.999-38.834-14.276-76.185-26.864-107.997c-0.077-0.206-0.322-0.825,0.168-1.559
	c0.502-0.734,1.172-0.734,1.392-0.734l233.13-0.618C456.122,25.769,456.547,25.949,456.869,26.323z M290.854,301.624
	c11.699-44.013,14.985-99.455,9.277-156.12c-0.245-2.371-0.503-4.767-0.773-7.151c-0.799-7.074-7.215-12.137-14.263-11.338
	c-7.061,0.799-12.15,7.189-11.338,14.25c0.258,2.281,0.502,4.548,0.734,6.829c5.411,53.651,2.384,105.832-8.542,146.921
	c-1.817,6.88,2.268,13.928,9.148,15.758c1.108,0.296,2.229,0.438,3.324,0.438C284.115,311.21,289.334,307.396,290.854,301.624z
	 M282.105,107.714c6.983-1.379,11.532-8.156,10.153-15.139c-1.237-6.249-2.59-12.498-4.02-18.566
	c-1.636-6.932-8.568-11.222-15.487-9.599c-6.932,1.636-11.222,8.568-9.599,15.5c1.366,5.772,2.641,11.712,3.814,17.665
	c1.224,6.133,6.61,10.385,12.627,10.385C280.43,107.958,281.268,107.881,282.105,107.714z"/>
<path style="fill:#FFE5B1;" d="M452.674,435.24v41.642c0,12.073-9.779,21.852-21.852,21.852H323.753L304.8,480.426
	c-78.775,19.095-165.088,23.346-244.34,13.335c-10.398-1.301-18.27-10.643-18.296-21.762l-0.09-36.759h0.09h356.614h8.053H452.674z"
	/>
<path d="M476.08,9.135c5.218,5.837,7.705,13.645,6.816,21.414c-1.134,9.96-2.268,20.293-3.376,30.691
	c-16.724,157.769-22.457,307.473-14.276,372.526c0.103,0.889,0.052,43.253,0.052,43.253c0,19.159-15.577,34.736-34.736,34.736
	H323.49c-3.35,0-6.558-1.301-8.955-3.621l-13.902-13.438C250.912,506.151,197.61,512,144.706,512
	c-29.054,0-57.98-1.765-86.119-5.308c-16.814-2.126-29.518-16.969-29.57-34.517l-0.09-36.772c0-0.606,0.052-1.185,0.142-1.765
	c0.928-51.795,43.317-93.644,95.332-93.644h52.324c33.1-5.334,59.861-88.387,45.508-200.03
	c-4.716-36.746-13.451-71.946-25.266-101.8c-3.337-8.452-2.293-17.987,2.809-25.511c5.089-7.512,13.554-12.008,22.651-12.034
	L455.542,0c0.026,0,0.052,0,0.077,0C463.415,0,470.875,3.324,476.08,9.135z M457.294,27.637c0.052-0.502-0.09-0.941-0.425-1.314
	c-0.322-0.374-0.747-0.554-1.25-0.554l-233.13,0.618c-0.219,0-0.889,0-1.392,0.734c-0.49,0.734-0.245,1.353-0.168,1.559
	c12.588,31.812,21.865,69.163,26.864,107.997c7.177,55.841,4.973,109.762-6.21,151.855c-12.008,45.16-33.474,72.372-60.544,76.855
	c-0.966,0.232-1.971,0.374-3.015,0.374H124.4c-33.989,0-62.335,24.48-68.403,56.73h292.772c7.112,0,12.884,5.759,12.884,12.884
	c0,7.112-5.772,12.884-12.884,12.884H54.734l0.052,23.849c0.013,4.626,3.028,8.504,7.022,9.006
	c78.749,9.947,163.877,5.308,239.688-13.078c4.213-1.018,8.439,0.168,11.48,2.796c0.039,0.039,0.064,0.052,0.103,0.09
	c0.09,0.077,0.18,0.168,0.271,0.245c0.052,0.039,0.09,0.077,0.129,0.129l15.216,14.688h101.864c4.948,0,8.967-4.02,8.967-8.968
	v-41.191c-8.182-67.398-2.448-218.661,14.366-377.307C455.001,48.046,456.148,37.661,457.294,27.637z"/>
<path d="M300.131,145.503c5.708,56.666,2.422,112.107-9.277,156.12c-1.52,5.772-6.739,9.586-12.433,9.586
	c-1.095,0-2.216-0.142-3.324-0.438c-6.88-1.83-10.965-8.877-9.148-15.758c10.926-41.088,13.954-93.27,8.542-146.921
	c-0.232-2.281-0.477-4.548-0.734-6.829c-0.812-7.061,4.278-13.451,11.338-14.25c7.048-0.799,13.464,4.265,14.263,11.338
	C299.628,140.736,299.886,143.133,300.131,145.503z"/>
<path d="M292.258,92.574c1.379,6.983-3.17,13.761-10.153,15.139c-0.837,0.167-1.675,0.245-2.512,0.245
	c-6.017,0-11.403-4.252-12.627-10.385c-1.172-5.953-2.448-11.892-3.814-17.664c-1.623-6.932,2.667-13.864,9.599-15.5
	c6.919-1.623,13.851,2.667,15.487,9.599C289.669,80.076,291.021,86.325,292.258,92.574z"/>
<path d="M403.015,447.99h-11.181c-7.043,0-12.75-5.709-12.75-12.75l0,0c0-7.043,5.709-12.75,12.75-12.75h11.181
	c7.043,0,12.75,5.709,12.75,12.75l0,0C415.767,442.281,410.058,447.99,403.015,447.99z"/>
<g>
</g>
<g>
</g>
<g>
</g>
<g>
</g>
<g>
</g>
<g>
</g>
<g>
</g>
<g>
</g>
<g>
</g>
<g>
</g>
<g>
</g>
<g>
</g>
<g>
</g>
<g>
</g>
<g>
</g>
</svg>
