<svg id="Capa_1" enable-background="new 0 0 512 512" height="512" viewBox="0 0 512 512" width="512" xmlns="http://www.w3.org/2000/svg"><g><g><path d="m256.013 91.631c-4.182 0-7.572-3.391-7.572-7.574v-31.839c0-4.183 3.39-7.574 7.572-7.574s7.572 3.391 7.572 7.574v31.839c0 4.183-3.39 7.574-7.572 7.574z" fill="#9d9696"/></g><g><path d="m30.488 151.291c-2.412 0-4.783-1.15-6.251-3.29l-20.576-30.002c-3.78-5.558-3.711-10.108-3.643-14.509.009-.598.019-1.225.019-1.891v-18.977c0-3.445.402-7.367 3.38-10.336 3.251-3.24 7.385-3.225 11.04-3.212l6.841.002c4.182 0 7.572 3.391 7.572 7.574s-3.39 7.574-7.572 7.574h-6.117v17.375c0 .748-.011 1.453-.021 2.124-.056 3.637.002 4.257 1.005 5.731l20.56 29.978c2.365 3.45 1.488 8.164-1.96 10.531-1.309.897-2.801 1.328-4.277 1.328z" fill="#9d9696"/></g><g><path d="m66.948 151.291c-1.475 0-2.964-.43-4.273-1.326-3.45-2.364-4.331-7.078-1.967-10.529l20.547-30.002c.989-1.455 1.047-2.074.991-5.711-.01-.671-.021-1.376-.021-2.124v-17.375h-6.117c-4.182 0-7.572-3.391-7.572-7.574s3.39-7.574 7.572-7.574l6.841-.002c3.651-.015 7.788-.028 11.04 3.212 2.978 2.968 3.38 6.89 3.38 10.336v18.977c0 .666.01 1.294.019 1.891.067 4.401.137 8.952-3.627 14.485l-20.561 30.021c-1.465 2.143-3.838 3.295-6.252 3.295z" fill="#9d9696"/></g><g><path d="m481.537 151.291c-1.475 0-2.964-.43-4.272-1.326-3.45-2.364-4.331-7.078-1.967-10.529l20.548-30.002c1.004-1.461 1.055-2.008.993-5.635-.011-.694-.023-1.424-.023-2.2v-17.375h-6.088c-4.182 0-7.572-3.391-7.572-7.574s3.39-7.574 7.572-7.574l6.813-.002c3.656-.015 7.788-.028 11.04 3.212 2.978 2.968 3.38 6.89 3.38 10.336v18.977c0 .686.011 1.331.022 1.945.07 4.187.15 8.932-3.649 14.461l-20.541 29.992c-1.47 2.142-3.842 3.294-6.256 3.294z" fill="#9d9696"/></g><g><path d="m445.077 151.291c-2.414 0-4.787-1.152-6.253-3.294l-20.547-30.002c-3.793-5.519-3.713-10.265-3.643-14.452.01-.613.022-1.258.022-1.944v-18.977c0-3.445.402-7.367 3.38-10.336 3.251-3.24 7.39-3.225 11.04-3.212l6.813.002c4.182 0 7.572 3.391 7.572 7.574s-3.39 7.574-7.572 7.574h-6.088v17.375c0 .775-.012 1.504-.023 2.198-.061 3.628-.01 4.176.988 5.628l20.554 30.011c2.363 3.451 1.483 8.165-1.967 10.529-1.312.896-2.802 1.326-4.276 1.326z" fill="#9d9696"/></g><g><path clip-rule="evenodd" d="m322.615 466.172 19.632-13.883-5.338-44.558-20.633-11.283-22.671 14.527 4.965 41.428c.775-.057 24.045 13.769 24.045 13.769z" fill="#9d9696" fill-rule="evenodd"/></g><g><path clip-rule="evenodd" d="m210.929 452.404 4.821-40.165-20.805-16.193-22.154 10.077-5.539 46.166 26.401 9.015z" fill="#9d9696" fill-rule="evenodd"/></g><g><path clip-rule="evenodd" d="m215.75 412.239c10.848-6.46 17.764-18.661 16.845-32.126-.287-4.335-1.377-8.441-3.071-12.173l-31.452-19.953-31.452 19.953c-2.353 5.11-3.501 10.852-3.099 16.853.545 8.297 3.989 15.704 9.269 21.331 6.859 7.321 16.817 11.627 27.607 10.881 5.625-.374 10.819-2.068 15.353-4.766z" fill="#fdb440" fill-rule="evenodd"/></g><g><path clip-rule="evenodd" d="m315.559 417.004c8.293-.545 15.726-3.991 21.351-9.273 7.318-6.862 11.594-16.824 10.876-27.619-.287-4.335-1.377-8.441-3.099-12.173l-31.567-19.35-31.337 19.35c-2.353 5.11-3.501 10.852-3.099 16.853.746 10.967 6.514 20.413 14.923 26.183 6.197 4.307 13.86 6.604 21.952 6.029z" fill="#fdb440" fill-rule="evenodd"/></g><g><path clip-rule="evenodd" d="m215.75 412.239c10.848-6.46 17.764-18.661 16.845-32.126-.287-4.335-1.377-8.441-3.071-12.173h-62.904c-1.664 3.589-2.726 7.493-3.071 11.599h35.585c9.126 0 13.316 1.407 14.062 12.173.373 5.799-.689 11.34-2.87 16.307-1.349 3.043-3.099 5.857-5.223 8.355 3.817-.776 7.405-2.212 10.647-4.135z" fill="#fe9737" fill-rule="evenodd"/></g><g><path clip-rule="evenodd" d="m330.912 412.239c10.876-6.46 17.792-18.661 16.874-32.126-.287-4.335-1.377-8.441-3.099-12.173h-62.904c-1.664 3.589-2.726 7.493-3.042 11.599h35.556c9.154 0 13.344 1.407 14.062 12.173.402 5.799-.66 11.34-2.87 16.307-1.32 3.043-3.099 5.857-5.194 8.355 3.816-.776 7.403-2.212 10.617-4.135z" fill="#fe9737" fill-rule="evenodd"/></g><g><path clip-rule="evenodd" d="m152.014 192.293 104.401 25.631 103.597-25.631c0-72.176-51.999-108.236-103.999-108.236s-103.999 36.06-103.999 108.236z" fill="#eee1dc" fill-rule="evenodd"/></g><g><path clip-rule="evenodd" d="m221.002 164.473c9.527 0 17.247-7.723 17.247-17.226 0-9.532-7.72-17.255-17.247-17.255-9.499 0-17.218 7.723-17.218 17.255 0 9.503 7.719 17.226 17.218 17.226z" fill="#60b7ff" fill-rule="evenodd"/></g><g><path clip-rule="evenodd" d="m291.081 164.473c9.527 0 17.247-7.723 17.247-17.226 0-9.532-7.72-17.255-17.247-17.255s-17.247 7.723-17.247 17.255c-.001 9.503 7.719 17.226 17.247 17.226z" fill="#60b7ff" fill-rule="evenodd"/></g><g><path clip-rule="evenodd" d="m106.156 251.579-52.66-52.683 2.152-23.283 23.446-2.326 47.896 47.917-5.682 20.24z" fill="#9d9696" fill-rule="evenodd"/></g><g><path clip-rule="evenodd" d="m135.168 281.839c-17.936-1.206-31.768-15.905-32.284-33.504-.029-1.12 0-2.268.086-3.388.861-12.718 8.466-23.37 19.084-28.681 5.338-2.67 11.421-3.991 17.792-3.56 4.333.287 8.437 1.378 12.168 3.101l21.724 32.528-21.724 30.404c-5.108 2.353-10.848 3.502-16.846 3.1z" fill="#fdb440" fill-rule="evenodd"/></g><g><path clip-rule="evenodd" d="m48.704 199.269c-16.989 0-30.763-13.781-30.763-30.777 0-10.163 4.936-19.178 12.512-24.777 5.108-3.761 11.421-6 18.251-6s13.143 2.239 18.251 6c7.576 5.598 12.512 14.613 12.512 24.777 0 1.636-.115 3.244-.373 4.795-2.066 13.149-12.455 23.571-25.598 25.609-1.549.259-3.157.373-4.792.373z" fill="#fdb440" fill-rule="evenodd"/></g><g><path d="m302.186 238.654h-27.836c-4.182 0-7.572-3.391-7.572-7.574s3.39-7.574 7.572-7.574h27.836c4.182 0 7.572 3.391 7.572 7.574s-3.39 7.574-7.572 7.574z"/></g><g><path d="m238.479 238.654h-27.837c-4.182 0-7.572-3.391-7.572-7.574s3.39-7.574 7.572-7.574h27.837c4.182 0 7.572 3.391 7.572 7.574s-3.39 7.574-7.572 7.574z"/></g><g><path clip-rule="evenodd" d="m223.269 505c5.481 0 9.987-4.507 9.987-10.02v-17.972c0-12.805-9.843-23.398-22.326-24.604-.775-.057-1.578-.115-2.353-.115h-41.324-10.876c-13.574 0-24.68 11.139-24.68 24.719v17.972c0 5.512 4.505 10.02 9.987 10.02z" fill="#fdb440" fill-rule="evenodd"/></g><g><path clip-rule="evenodd" d="m286.231 505h81.586c5.481 0 9.987-4.507 9.987-10.02v-17.972c0-13.58-11.106-24.719-24.68-24.719h-10.876-41.324c-.803 0-1.578.057-2.353.115-12.483 1.206-22.326 11.8-22.326 24.604v17.972c-.001 5.513 4.476 10.02 9.986 10.02z" fill="#fdb440" fill-rule="evenodd"/></g><g><path clip-rule="evenodd" d="m405.869 251.579 52.66-52.683-2.181-23.283-23.446-2.326-47.867 47.917 5.654 20.24z" fill="#9d9696" fill-rule="evenodd"/></g><g><path clip-rule="evenodd" d="m376.828 281.839c17.964-1.206 31.768-15.905 32.284-33.504.029-1.12 0-2.268-.057-3.388-.861-12.718-8.466-23.37-19.112-28.681-5.309-2.67-11.393-3.991-17.792-3.56-4.333.287-8.408 1.378-12.139 3.101l-21.753 32.528 21.753 30.404c5.079 2.353 10.818 3.502 16.816 3.1z" fill="#fdb440" fill-rule="evenodd"/></g><g><path clip-rule="evenodd" d="m463.321 199.269c16.989 0 30.735-13.781 30.735-30.777 0-10.163-4.907-19.178-12.512-24.777-5.108-3.761-11.422-6-18.223-6-6.83 0-13.143 2.239-18.251 6-7.605 5.598-12.512 14.613-12.512 24.777 0 1.636.115 3.244.344 4.795 2.066 13.149 12.455 23.571 25.627 25.609 1.549.259 3.157.373 4.792.373z" fill="#fdb440" fill-rule="evenodd"/></g><g><path clip-rule="evenodd" d="m229.525 367.939h52.258 62.904c8.437 0 15.324-6.89 15.324-15.302v-53.63-62.932-43.782h-207.997v43.782 32.241 30.691 54.348c0 8.01 6.572 14.585 14.607 14.585h62.904z" fill="#cdbeb9" fill-rule="evenodd"/></g><g><path clip-rule="evenodd" d="m376.828 281.839c17.964-1.206 31.768-15.905 32.284-33.504.029-1.12 0-2.268-.057-3.388-.861-12.718-8.466-23.37-19.112-28.681-5.309-2.67-11.393-3.991-17.792-3.56-3.702.258-7.232 1.091-10.503 2.383 2.497.632 4.907 1.522 7.174 2.641 4.219 2.125 7.978 5.082 11.02 8.67 4.592 5.455 7.547 12.345 8.064 20.011.086 1.12.115 2.268.057 3.388 0 .287 0 .574-.029.861-.717 13.608-9.413 25.351-21.724 30.26 3.386.833 6.973 1.177 10.618.919z" fill="#fe9737" fill-rule="evenodd"/></g><g><path clip-rule="evenodd" d="m79.094 173.287c.258-1.55.373-3.158.373-4.795 0-10.163-4.936-19.178-12.512-24.777-5.108-3.761-11.421-6-18.251-6-3.587 0-7.031.632-10.245 1.751 9.183 3.244 16.357 10.709 19.198 20.068.861 2.842 1.32 5.857 1.32 8.957 0 2.354-.258 4.651-.746 6.862-.689 3.043-1.837 5.885-3.329 8.498-1.98 3.416-4.563 6.402-7.633 8.814-2.611 2.067-5.596 3.732-8.81 4.852 3.214 1.148 6.658 1.751 10.245 1.751 1.636 0 3.243-.115 4.792-.373 13.144-2.037 23.532-12.459 25.598-25.608z" fill="#fe9737" fill-rule="evenodd"/></g><g><path clip-rule="evenodd" d="m493.712 173.431c.23-1.579.344-3.158.344-4.795 0-10.163-4.907-19.178-12.512-24.805-5.108-3.761-11.422-5.972-18.251-5.972-3.587 0-7.031.603-10.216 1.751 9.154 3.216 16.357 10.709 19.198 20.068.861 2.814 1.32 5.828 1.32 8.957 0 2.354-.258 4.651-.775 6.862-.689 3.015-1.808 5.885-3.329 8.498-1.951 3.388-4.563 6.402-7.633 8.814-2.611 2.067-5.567 3.704-8.781 4.852 3.185 1.12 6.629 1.751 10.216 1.751 1.636 0 3.243-.144 4.792-.373 13.172-2.066 23.56-12.459 25.627-25.608z" fill="#fe9737" fill-rule="evenodd"/></g><g><path clip-rule="evenodd" d="m304.138 323.411c4.362 0 7.949-3.589 7.949-7.953v-36.921c0-4.364-3.587-7.953-7.949-7.953h-95.447c-4.362 0-7.949 3.589-7.949 7.953v36.921c0 4.364 3.587 7.953 7.949 7.953z" fill="#60b7ff" fill-rule="evenodd"/></g><g><path clip-rule="evenodd" d="m152.014 248.047v-32.241c-3.731-1.723-7.834-2.814-12.168-3.101-2.669-.172-5.309-.057-7.863.373v68.387c1.033.172 2.124.287 3.185.373 5.998.402 11.737-.746 16.845-3.101v-30.69z" fill="#fe9737" fill-rule="evenodd"/></g><g><path clip-rule="evenodd" d="m377.804 494.98v-17.972c0-13.58-11.106-24.719-24.68-24.719h-10.876-15.238c13.603 0 24.708 11.139 24.708 24.719v17.972c0 5.512-4.505 10.02-10.015 10.02h26.115c5.48 0 9.986-4.507 9.986-10.02z" fill="#fe9737" fill-rule="evenodd"/></g><g><path clip-rule="evenodd" d="m233.256 494.98v-17.972c0-13.58-11.106-24.719-24.68-24.719h-10.876-15.238c13.602 0 24.708 11.139 24.708 24.719v17.972c0 5.512-4.505 10.02-10.015 10.02h26.114c5.481 0 9.987-4.507 9.987-10.02z" fill="#fe9737" fill-rule="evenodd"/></g><g><path clip-rule="evenodd" d="m360.011 192.293c0-72.176-51.999-108.236-103.999-108.236-5.165 0-10.302.345-15.41 1.062 46.403 6.431 88.617 42.146 88.617 107.174z" fill="#cdbeb9" fill-rule="evenodd"/></g><g><path clip-rule="evenodd" d="m360.011 352.637v-53.63-62.932-43.782h-30.792v175.646h15.468c8.437 0 15.324-6.89 15.324-15.302z" fill="#9d9696" fill-rule="evenodd"/></g><g><path clip-rule="evenodd" d="m256.012 52.218c12.483 0 22.585-10.135 22.585-22.623 0-12.489-10.101-22.595-22.585-22.595-12.483 0-22.613 10.106-22.613 22.595 0 12.488 10.13 22.623 22.613 22.623z" fill="#fd8087" fill-rule="evenodd"/></g><g><path clip-rule="evenodd" d="m256.012 52.218c12.483 0 22.585-10.135 22.585-22.623 0-12.489-10.101-22.595-22.585-22.595-2.812 0-5.481.488-7.978 1.435 6.686 3.933 11.192 11.197 11.192 19.494 0 9.704-6.084 17.972-14.636 21.188 3.33 1.953 7.261 3.101 11.422 3.101z" fill="#fd4755" fill-rule="evenodd"/></g><g><path clip-rule="evenodd" d="m210.929 452.404 4.821-40.165c-3.243 1.924-6.83 3.359-10.647 4.134-1.521.316-3.099.545-4.706.632-2.583.201-5.137.086-7.605-.316l-4.879 35.6h9.786 10.876c.776 0 1.579.057 2.354.115z" fill="#746e6e" fill-rule="evenodd"/></g><g><path clip-rule="evenodd" d="m342.248 452.289-5.338-44.558c-1.837 1.723-3.817 3.216-5.998 4.507-3.214 1.924-6.801 3.359-10.618 4.134-1.119.23-2.267.402-3.415.517l4.879 35.399h5.252 15.238z" fill="#746e6e" fill-rule="evenodd"/></g><g><path clip-rule="evenodd" d="m304.138 270.585h-95.447c-4.362 0-7.949 3.589-7.949 7.953v18.46c0-4.393 3.587-7.953 7.949-7.953h95.447c4.362 0 7.949 3.56 7.949 7.953v-18.46c0-4.365-3.587-7.953-7.949-7.953z" fill="#22a6fe" fill-rule="evenodd"/></g><g><path d="m220.715 237.161h-19.973c-4.182 0-7.572-3.391-7.572-7.574s3.39-7.574 7.572-7.574h19.973c4.182 0 7.572 3.391 7.572 7.574s-3.39 7.574-7.572 7.574z" fill="#fd4755"/></g><g><path d="m312.087 237.161h-19.973c-4.182 0-7.572-3.391-7.572-7.574s3.39-7.574 7.572-7.574h19.973c4.182 0 7.572 3.391 7.572 7.574s-3.39 7.574-7.572 7.574z" fill="#fd4755"/></g></g></svg>