<svg height="409pt" viewBox="0 -29 409.6 409" width="409pt" xmlns="http://www.w3.org/2000/svg"><path d="m259.414062 147.074219c0 71.632812-58.074218 129.707031-129.707031 129.707031-71.636719 0-129.707031-58.074219-129.707031-129.707031 0-71.636719 58.070312-129.707031 129.707031-129.707031 71.632813 0 129.707031 58.070312 129.707031 129.707031zm0 0" fill="#c1dbdc"/><path d="m327.253906 345.046875h-183.46875c-15.316406 0-27.730468-12.417969-27.730468-27.734375v-217.597656c0-15.320313 12.414062-27.734375 27.730468-27.734375h183.46875c15.316406 0 27.734375 12.414062 27.734375 27.734375v217.597656c0 15.316406-12.417969 27.734375-27.734375 27.734375zm0 0" fill="#e7d1c4"/><path d="m327.253906 351.875h-183.46875c-19.054687 0-34.558594-15.507812-34.558594-34.5625v-217.597656c0-19.054688 15.503907-34.5625 34.558594-34.5625h183.46875c19.054688 0 34.558594 15.507812 34.558594 34.5625v217.597656c0 19.054688-15.503906 34.5625-34.558594 34.5625zm-183.46875-273.066406c-11.523437 0-20.90625 9.378906-20.90625 20.90625v217.597656c0 11.527344 9.382813 20.90625 20.90625 20.90625h183.46875c11.527344 0 20.90625-9.378906 20.90625-20.90625v-217.597656c0-11.527344-9.378906-20.90625-20.90625-20.90625zm0 0" fill="#4c241d"/><path d="m329.980469 156.441406c0 21.699219-17.589844 39.289063-39.289063 39.289063-21.703125 0-39.292968-17.589844-39.292968-39.289063 0-21.703125 17.589843-39.292968 39.292968-39.292968 21.699219 0 39.289063 17.589843 39.289063 39.292968zm0 0" fill="#ffce56"/><path d="m290.691406 202.558594c-25.429687 0-46.121094-20.683594-46.121094-46.117188s20.691407-46.121094 46.121094-46.121094c25.425782 0 46.117188 20.6875 46.117188 46.121094s-20.6875 46.117188-46.117188 46.117188zm0-78.585938c-17.90625 0-32.46875 14.566406-32.46875 32.46875 0 17.898438 14.5625 32.464844 32.46875 32.464844 17.902344 0 32.464844-14.566406 32.464844-32.464844 0-17.902344-14.5625-32.46875-32.464844-32.46875zm0 0" fill="#4c241d"/><path d="m305.539062 156.441406c0 8.199219-6.648437 14.847656-14.847656 14.847656-8.203125 0-14.851562-6.648437-14.851562-14.847656 0-8.203125 6.648437-14.851562 14.851562-14.851562 8.199219 0 14.847656 6.648437 14.847656 14.851562zm0 0" fill="#bf7e68"/><path d="m290.691406 178.121094c-11.957031 0-21.679687-9.726563-21.679687-21.679688 0-11.957031 9.722656-21.683594 21.679687-21.683594 11.953125 0 21.675782 9.726563 21.675782 21.683594 0 11.953125-9.722657 21.679688-21.675782 21.679688zm0-29.707032c-4.425781 0-8.023437 3.597657-8.023437 8.027344 0 4.425782 3.597656 8.023438 8.023437 8.023438 4.421875 0 8.019532-3.597656 8.019532-8.023438 0-4.429687-3.597657-8.027344-8.019532-8.027344zm0 0" fill="#4c241d"/><path d="m219.960938 156.441406c0 21.699219-17.59375 39.289063-39.292969 39.289063s-39.292969-17.589844-39.292969-39.289063c0-21.703125 17.59375-39.292968 39.292969-39.292968s39.292969 17.589843 39.292969 39.292968zm0 0" fill="#ffce56"/><path d="m180.667969 202.558594c-25.429688 0-46.117188-20.683594-46.117188-46.117188s20.6875-46.121094 46.117188-46.121094c25.429687 0 46.117187 20.6875 46.117187 46.121094s-20.683594 46.117188-46.117187 46.117188zm0-78.585938c-17.902344 0-32.464844 14.566406-32.464844 32.46875 0 17.898438 14.5625 32.464844 32.464844 32.464844 17.902343 0 32.464843-14.566406 32.464843-32.464844 0-17.902344-14.5625-32.46875-32.464843-32.46875zm0 0" fill="#4c241d"/><path d="m195.515625 156.441406c0 8.199219-6.648437 14.847656-14.847656 14.847656-8.203125 0-14.851563-6.648437-14.851563-14.847656 0-8.203125 6.648438-14.851562 14.851563-14.851562 8.199219 0 14.847656 6.648437 14.847656 14.851562zm0 0" fill="#bf7e68"/><path d="m180.667969 178.121094c-11.953125 0-21.679688-9.726563-21.679688-21.679688 0-11.957031 9.726563-21.683594 21.679688-21.683594s21.679687 9.726563 21.679687 21.683594c0 11.953125-9.726562 21.679688-21.679687 21.679688zm0-29.707032c-4.425781 0-8.023438 3.597657-8.023438 8.027344 0 4.425782 3.597657 8.023438 8.023438 8.023438s8.023437-3.597656 8.023437-8.023438c0-4.429687-3.597656-8.027344-8.023437-8.027344zm0 0" fill="#4c241d"/><path d="m297.398438 290.035156h-123.4375c-9.316407 0-16.867188-7.550781-16.867188-16.867187 0-9.316407 7.550781-16.871094 16.867188-16.871094h123.4375c9.316406 0 16.867187 7.554687 16.867187 16.871094 0 9.316406-7.554687 16.867187-16.867187 16.867187zm0 0" fill="#c1dbdc"/><path d="m297.398438 296.859375h-123.4375c-13.0625 0-23.695313-10.625-23.695313-23.691406 0-13.066407 10.628906-23.695313 23.695313-23.695313h123.4375c13.0625 0 23.691406 10.628906 23.691406 23.695313 0 13.066406-10.628906 23.691406-23.691406 23.691406zm-123.4375-33.734375c-5.535157 0-10.039063 4.507812-10.039063 10.042969 0 5.53125 4.503906 10.039062 10.039063 10.039062h123.4375c5.535156 0 10.039062-4.507812 10.039062-10.039062 0-5.535157-4.503906-10.042969-10.039062-10.042969zm0 0" fill="#4c241d"/><path d="m375.464844 160.726562c-3.769532 0-6.824219-3.054687-6.824219-6.828124v-116.050782c0-3.773437 3.054687-6.828125 6.824219-6.828125 3.773437 0 6.828125 3.054688 6.828125 6.828125v116.050782c0 3.773437-3.054688 6.828124-6.828125 6.828124zm0 0" fill="#4c241d"/><path d="m392.851562 22.84375c0 8.679688-7.039062 15.714844-15.71875 15.714844-8.679687 0-15.714843-7.035156-15.714843-15.714844s7.035156-15.71875 15.714843-15.71875c8.679688 0 15.71875 7.039062 15.71875 15.71875zm0 0" fill="#fc8c29"/><path d="m377.132812 45.386719c-12.429687 0-22.542968-10.113281-22.542968-22.539063 0-12.433594 10.113281-22.546875 22.542968-22.546875 12.429688 0 22.542969 10.113281 22.542969 22.546875 0 12.425782-10.113281 22.539063-22.542969 22.539063zm0-31.433594c-4.902343 0-8.890624 3.988281-8.890624 8.894531 0 4.898438 3.988281 8.886719 8.890624 8.886719 4.90625 0 8.890626-3.988281 8.890626-8.886719 0-4.90625-3.984376-8.894531-8.890626-8.894531zm0 0" fill="#4c241d"/><path d="m95.574219 153.898438c-3.769531 0-6.828125-3.050782-6.828125-6.824219v-109.226563c0-3.773437 3.058594-6.828125 6.828125-6.828125s6.824219 3.054688 6.824219 6.828125v109.226563c0 3.773437-3.054688 6.824219-6.824219 6.824219zm0 0" fill="#4c241d"/><path d="m109.941406 22.84375c0 8.679688-7.039062 15.714844-15.71875 15.714844-8.679687 0-15.714844-7.035156-15.714844-15.714844s7.035157-15.71875 15.714844-15.71875c8.679688 0 15.71875 7.039062 15.71875 15.71875zm0 0" fill="#fc8c29"/><path d="m94.222656 45.386719c-12.429687 0-22.542968-10.113281-22.542968-22.539063 0-12.433594 10.113281-22.546875 22.542968-22.546875 12.429688 0 22.542969 10.113281 22.542969 22.546875 0 12.425782-10.113281 22.539063-22.542969 22.539063zm0-31.433594c-4.902344 0-8.890625 3.988281-8.890625 8.894531 0 4.898438 3.988281 8.886719 8.890625 8.886719s8.890625-3.988281 8.890625-8.886719c0-4.90625-3.988281-8.894531-8.890625-8.894531zm0 0" fill="#4c241d"/><path d="m354.988281 147.074219h47.785157v81.917969h-47.785157zm0 0" fill="#f53e28"/><path d="m402.773438 235.820312h-47.785157c-3.773437 0-6.828125-3.054687-6.828125-6.828124v-81.917969c0-3.773438 3.054688-6.828125 6.828125-6.828125h47.785157c3.769531 0 6.828124 3.054687 6.828124 6.828125v81.917969c0 3.773437-3.058593 6.828124-6.828124 6.828124zm-40.960938-13.652343h34.132812v-68.269531h-34.132812zm0 0" fill="#4c241d"/><path d="m68.265625 147.074219h47.789063v81.917969h-47.789063zm0 0" fill="#f53e28"/><path d="m116.054688 235.820312h-47.789063c-3.769531 0-6.824219-3.054687-6.824219-6.828124v-81.917969c0-3.773438 3.054688-6.828125 6.824219-6.828125h47.789063c3.769531 0 6.824218 3.054687 6.824218 6.828125v81.917969c0 3.773437-3.054687 6.828124-6.824218 6.828124zm-40.960938-13.652343h34.132812v-68.269531h-34.132812zm0 0" fill="#4c241d"/></svg>