<svg id="Capa_1" enable-background="new 0 0 512 512" height="512" viewBox="0 0 512 512" width="512" xmlns="http://www.w3.org/2000/svg"><g><g><path d="m320.086 406.077-63.498 11.427-63.499-11.427v-53.158l62.702-9.55 64.295 9.55z" fill="#8ebac5"/><path d="m475.5 188.47v52.16c0 12.83-10.4 23.23-23.23 23.23h-392.54c-12.83 0-23.23-10.4-23.23-23.23v-52.16c0-12.82 10.4-23.22 23.23-23.22h392.54c12.83 0 23.23 10.4 23.23 23.22z" fill="#8379c1"/><path d="m64.18 165.25h37.9v98.61h-37.9z" fill="#6e61b6"/><path d="m452.27 165.247h-22.76c12.828 0 23.228 10.399 23.228 23.228v52.154c0 12.828-10.399 23.228-23.228 23.228h22.76c12.828 0 23.228-10.399 23.228-23.228v-52.154c0-12.829-10.4-23.228-23.228-23.228z" fill="#6e61b6"/><path d="m428 128.73v192.24c0 17.65-14.3 31.95-31.94 31.95h-280.12c-17.64 0-31.94-14.3-31.94-31.95v-192.24c0-17.65 14.3-31.95 31.94-31.95h65.105l79.235 3.329 70.258-3.329h65.522c17.64 0 31.94 14.3 31.94 31.95z" fill="#e0edf1"/><path d="m396.057 96.782h-23.518c17.643 0 31.946 14.302 31.946 31.946v192.246c0 17.643-14.302 31.946-31.946 31.946h23.518c17.643 0 31.946-14.302 31.946-31.946v-192.246c0-17.644-14.303-31.946-31.946-31.946z" fill="#a8d3d8"/><path d="m297.303 116.428h-83.023v-18.337c0-22.706 18.407-41.112 41.112-41.112h.799c22.706 0 41.112 18.407 41.112 41.112z" fill="#08a9f1"/><path d="m256.191 56.979h-.799c-3.927 0-7.72.562-11.317 1.59 17.2 4.917 29.795 20.743 29.795 39.522v18.337h23.433v-18.337c0-22.706-18.407-41.112-41.112-41.112z" fill="#0290cf"/><path d="m193.089 352.919h126.997v53.158h-126.997z" fill="#8ebac5"/><path d="m320.086 406.077-26.757 4v-60.158l26.757 3z" fill="#7ca1b1"/><g><circle cx="164.154" cy="221.961" fill="#8ebac5" r="45.339"/><path d="m164.154 176.622c-3.24 0-6.398.346-9.446.992 20.505 4.346 35.893 22.546 35.893 44.346s-15.388 40-35.893 44.346c3.047.646 6.206.992 9.446.992 25.04 0 45.339-20.299 45.339-45.339s-20.299-45.337-45.339-45.337z" fill="#7ca1b1"/><circle cx="164.154" cy="221.961" fill="#a2e62e" r="18.891"/></g><g><circle cx="349.797" cy="221.961" fill="#8ebac5" r="45.339"/><path d="m349.797 176.622c-3.368 0-6.646.379-9.805 1.075 20.324 4.483 35.533 22.592 35.533 44.263s-15.209 39.781-35.533 44.263c3.159.697 6.437 1.075 9.805 1.075 25.04 0 45.339-20.299 45.339-45.339s-20.299-45.337-45.339-45.337z" fill="#7ca1b1"/><circle cx="349.797" cy="221.961" fill="#a2e62e" r="18.891"/></g><path d="m336.222 325.654h-159.996c-10.372 0-18.78-8.408-18.78-18.78v-.365c0-10.372 8.408-18.78 18.78-18.78h159.996c10.372 0 18.78 8.408 18.78 18.78v.365c0 10.372-8.408 18.78-18.78 18.78z" fill="#ffcebf"/><path d="m336.222 287.729h-24.85c10.372 0 18.78 8.408 18.78 18.78v.365c0 10.372-8.408 18.78-18.78 18.78h24.85c10.372 0 18.78-8.408 18.78-18.78v-.365c0-10.372-8.408-18.78-18.78-18.78z" fill="#ffb09e"/><path d="m475.498 504.5h-438.996v-56.502c0-23.153 18.769-41.921 41.921-41.921h355.152c23.153 0 41.921 18.769 41.921 41.921v56.502z" fill="#e0edf1"/><path d="m433.576 406.077h-22.994c23.153 0 41.921 18.769 41.921 41.921v46.679c0 5.425-4.398 9.823-9.823 9.823h32.816v-56.502c.002-23.152-18.767-41.921-41.92-41.921z" fill="#a8d3d8"/><circle cx="126.647" cy="459.905" fill="#62dbfb" r="16.442"/><circle cx="186.218" cy="459.905" fill="#08a9f1" r="16.442"/><path d="m352.982 442.453h89.238v32.885h-89.238z" fill="#8ebac5"/><path d="m352.982 442.453h89.238v32.885h-89.238z" fill="#8ebac5"/><path d="m412.406 442.453c4.273 0 7.738 3.464 7.738 7.738v17.409c0 4.274-3.464 7.738-7.738 7.738h29.814v-32.885z" fill="#7ca1b1"/><path d="m294.204 133.115h-76.826c-20.066 0-36.333-16.267-36.333-36.333h149.493c0 20.066-16.267 36.333-36.334 36.333z" fill="#62dbfb"/><path d="m306.939 96.782c0 20.066-16.267 36.333-36.333 36.333h23.598c20.066 0 36.333-16.267 36.333-36.333z" fill="#01d0fb"/></g><g><path d="m164.153 169.122c-29.135 0-52.838 23.703-52.838 52.838s23.703 52.839 52.838 52.839c29.136 0 52.839-23.704 52.839-52.839s-23.703-52.838-52.839-52.838zm0 90.677c-20.864 0-37.838-16.975-37.838-37.839s16.974-37.838 37.838-37.838 37.839 16.974 37.839 37.838-16.974 37.839-37.839 37.839z"/><path d="m164.153 195.57c-14.552 0-26.391 11.839-26.391 26.391s11.839 26.391 26.391 26.391c14.553 0 26.392-11.839 26.392-26.391s-11.839-26.391-26.392-26.391zm0 37.782c-6.281 0-11.391-5.11-11.391-11.391s5.109-11.391 11.391-11.391 11.392 5.11 11.392 11.391-5.11 11.391-11.392 11.391z"/><path d="m402.636 221.96c0-29.135-23.703-52.838-52.839-52.838-29.135 0-52.838 23.703-52.838 52.838s23.703 52.839 52.838 52.839c29.136 0 52.839-23.703 52.839-52.839zm-90.677 0c0-20.864 16.974-37.838 37.838-37.838s37.839 16.974 37.839 37.838-16.975 37.839-37.839 37.839-37.838-16.974-37.838-37.839z"/><path d="m376.188 221.96c0-14.552-11.839-26.391-26.392-26.391-14.552 0-26.391 11.839-26.391 26.391s11.839 26.391 26.391 26.391c14.554.001 26.392-11.838 26.392-26.391zm-37.782 0c0-6.281 5.109-11.391 11.391-11.391s11.392 5.11 11.392 11.391-5.11 11.391-11.392 11.391-11.391-5.109-11.391-11.391z"/><path d="m176.227 280.229c-14.491 0-26.28 11.789-26.28 26.28v.365c0 14.491 11.789 26.28 26.28 26.28h159.995c14.491 0 26.28-11.789 26.28-26.28v-.365c0-14.491-11.789-26.28-26.28-26.28zm106.83 37.925h-17.641v-22.924h17.641zm15-22.925h16.57v22.924h-16.57zm-65.282 0h17.641v22.924h-17.641zm-15 22.925h-17.553v-22.924h17.553zm-52.829-11.28v-.365c0-6.22 5.061-11.28 11.28-11.28h8.996v22.924h-8.996c-6.219.001-11.28-5.059-11.28-11.279zm182.556-.365v.365c0 6.22-5.061 11.28-11.28 11.28h-6.595v-22.924h6.595c6.219-.001 11.28 5.06 11.28 11.279z"/><path d="m500.011 497h-17.013v-49.002c0-27.251-22.171-49.421-49.422-49.421h-105.99v-38.157h68.472c21.75 0 39.445-17.695 39.445-39.446v-49.614h16.767c16.945 0 30.73-13.786 30.73-30.73v-18.579h17.011c4.143 0 7.5-3.358 7.5-7.5s-3.357-7.5-7.5-7.5h-17.011v-18.581c0-16.939-13.785-30.72-30.73-30.72h-16.767v-29.022c0-21.75-17.695-39.446-39.445-39.446h-92.042c-3.697-20.524-20.057-36.315-40.724-39.292v-42.49c0-4.142-3.357-7.5-7.5-7.5s-7.5 3.358-7.5 7.5v42.49c-20.668 2.976-37.029 18.768-40.726 39.292h-43.357c-4.143 0-7.5 3.358-7.5 7.5s3.357 7.5 7.5 7.5h9.992c3.57 20.607 21.566 36.333 43.178 36.333h76.826c21.612 0 39.609-15.726 43.179-36.333h58.675c13.479 0 24.445 10.966 24.445 24.446v192.246c0 13.479-10.966 24.446-24.445 24.446h-280.117c-13.479 0-24.445-10.966-24.445-24.446v-192.246c0-13.479 10.966-24.446 24.445-24.446h12.36c4.143 0 7.5-3.358 7.5-7.5s-3.357-7.5-7.5-7.5h-12.36c-21.75 0-39.445 17.695-39.445 39.446v29.022h-16.767c-16.945 0-30.73 13.781-30.73 30.72v18.581h-17.011c-4.143 0-7.5 3.358-7.5 7.5s3.357 7.5 7.5 7.5h17.011v18.579c0 16.944 13.785 30.73 30.73 30.73h16.767v49.614c0 21.75 17.695 39.446 39.445 39.446h77.146 119.497v38.157h-111.996v-10.461c0-4.142-3.357-7.5-7.5-7.5s-7.5 3.358-7.5 7.5v10.461h-107.165c-27.251 0-49.422 22.17-49.422 49.421v49.002h-17.013c-4.143 0-7.5 3.358-7.5 7.5s3.357 7.5 7.5 7.5h488.021c4.143 0 7.5-3.358 7.5-7.5s-3.357-7.5-7.499-7.5zm-244.621-432.52c15.258.169 29.214 9.661 33.255 24.802-21.903 0-43.806 0-65.709 0 3.838-14.383 17.609-24.802 32.454-24.802zm38.814 61.135h-76.826c-13.306 0-24.535-9.059-27.844-21.333h132.515c-3.309 12.275-14.538 21.333-27.845 21.333zm158.066 47.135c8.674 0 15.73 7.052 15.73 15.72v52.16c0 8.673-7.057 15.73-15.73 15.73h-16.767v-83.61zm-392.54 83.61c-8.674 0-15.73-7.057-15.73-15.73v-52.16c0-8.668 7.057-15.72 15.73-15.72h16.767v83.61zm-15.728 240.64v-49.002c0-18.98 15.441-34.421 34.422-34.421h355.152c18.98 0 34.422 15.441 34.422 34.421v49.002z"/><path d="m126.646 435.963c-13.202 0-23.942 10.741-23.942 23.942s10.74 23.942 23.942 23.942 23.942-10.741 23.942-23.942-10.739-23.942-23.942-23.942zm0 32.885c-4.931 0-8.942-4.012-8.942-8.942s4.012-8.942 8.942-8.942 8.942 4.012 8.942 8.942-4.011 8.942-8.942 8.942z"/><path d="m186.218 435.963c-13.202 0-23.942 10.741-23.942 23.942s10.74 23.942 23.942 23.942 23.942-10.741 23.942-23.942-10.74-23.942-23.942-23.942zm0 32.885c-4.931 0-8.942-4.012-8.942-8.942s4.012-8.942 8.942-8.942 8.942 4.012 8.942 8.942-4.012 8.942-8.942 8.942z"/><path d="m325.022 452.405h-88.654c-4.143 0-7.5 3.358-7.5 7.5s3.357 7.5 7.5 7.5h88.654c4.143 0 7.5-3.358 7.5-7.5s-3.357-7.5-7.5-7.5z"/><path d="m442.221 434.954h-38.599c-4.143 0-7.5 3.358-7.5 7.5s3.357 7.5 7.5 7.5h31.099v17.884h-74.238v-17.884h7.708c4.143 0 7.5-3.358 7.5-7.5s-3.357-7.5-7.5-7.5h-15.208c-4.143 0-7.5 3.358-7.5 7.5v32.884c0 4.142 3.357 7.5 7.5 7.5h89.238c4.143 0 7.5-3.358 7.5-7.5v-32.884c0-4.142-3.358-7.5-7.5-7.5z"/></g></g></svg>