<svg id="bold" enable-background="new 0 0 24 24" height="512" viewBox="0 0 24 24" width="512" xmlns="http://www.w3.org/2000/svg"><path d="m19.25 15c-.414 0-.75.336-.75.75v1h-.5v-3c0-1.517-1.233-2.75-2.75-2.75h-4.5v-2.149c.732-.297 1.25-1.014 1.25-1.851 0-1.103-.897-2-2-2s-2 .897-2 2c0 .837.518 1.554 1.25 1.851v2.149h-4.5c-1.517 0-2.75 1.233-2.75 2.75v3h-.5v-1c0-.414-.336-.75-.75-.75s-.75.336-.75.75v3.5c0 .414.336.75.75.75s.75-.336.75-.75v-1h.5v3c0 1.517 1.233 2.75 2.75 2.75h10.5c1.517 0 2.75-1.233 2.75-2.75v-3h.5v1c0 .414.336.75.75.75s.75-.336.75-.75v-3.5c0-.414-.336-.75-.75-.75zm-14.25 1c0-1.103.897-2 2-2s2 .897 2 2-.897 2-2 2-2-.897-2-2zm7.25 5h-4.5c-.414 0-.75-.336-.75-.75s.336-.75.75-.75h4.5c.414 0 .75.336.75.75s-.336.75-.75.75zm.75-3c-1.103 0-2-.897-2-2s.897-2 2-2 2 .897 2 2-.897 2-2 2z"/><circle cx="19.5" cy="7" r="1"/><path d="m16.916 4.109c-.287.298-.278.773.02 1.061.299.289.773.278 1.061-.02.809-.838 2.199-.838 3.008 0 .288.297.763.307 1.061.02s.307-.763.02-1.061c-1.381-1.431-3.791-1.431-5.17 0z"/><path d="m19.5 0c-1.623 0-3.146.653-4.29 1.84-.287.299-.278.773.02 1.061.299.288.772.278 1.061-.02.857-.891 1.997-1.381 3.209-1.381s2.352.49 3.21 1.381c.288.297.763.307 1.061.02s.307-.762.02-1.061c-1.145-1.187-2.668-1.84-4.291-1.84z"/></svg>